
<global>
amp_veltrack=0
ampeg_attack=0.01
ampeg_release=0.25
xf_cccurve=gain
xfin_hicc1=127
xfout_hicc1=127
xfout_locc1=127
</global>

<group>
group_label=PP

<region>
hikey=B3
hivel=127
lokey=A#3
lovel=0
offset=4000
pitch_keycenter=A#3
sample=Bassflute_sustain_PP_A#3.opus
</region>

<region>
hikey=B4
hivel=127
lokey=A#4
lovel=0
offset=4000
pitch_keycenter=A#4
sample=Bassflute_sustain_PP_A#4.opus
</region>

<region>
hikey=B5
hivel=127
lokey=A#5
lovel=0
offset=4000
pitch_keycenter=A#5
sample=Bassflute_sustain_PP_A#5.opus
</region>

<region>
hikey=C#3
hivel=127
lokey=C3
lovel=0
offset=4000
pitch_keycenter=C3
sample=Bassflute_sustain_PP_C3.opus
</region>

<region>
hikey=C#4
hivel=127
lokey=C4
lovel=0
offset=4000
sample=Bassflute_sustain_PP_C4.opus
</region>

<region>
hikey=C#5
hivel=127
lokey=C5
lovel=0
offset=4000
pitch_keycenter=C5
sample=Bassflute_sustain_PP_C5.opus
</region>

<region>
hikey=C#6
hivel=127
lokey=C6
lovel=0
offset=4000
pitch_keycenter=C6
sample=Bassflute_sustain_PP_C6.opus
</region>

<region>
hikey=D#3
hivel=127
lokey=D3
lovel=0
offset=4000
pitch_keycenter=D3
sample=Bassflute_sustain_PP_D3.opus
</region>

<region>
hikey=D#4
hivel=127
lokey=D4
lovel=0
offset=4000
pitch_keycenter=D4
sample=Bassflute_sustain_PP_D4.opus
</region>

<region>
hikey=D#5
hivel=127
lokey=D5
lovel=0
offset=4000
pitch_keycenter=D5
sample=Bassflute_sustain_PP_D5.opus
</region>

<region>
hikey=F3
hivel=127
lokey=E3
lovel=0
offset=4000
pitch_keycenter=E3
sample=Bassflute_sustain_PP_E3.opus
</region>

<region>
hikey=F4
hivel=127
lokey=E4
lovel=0
offset=4000
pitch_keycenter=E4
sample=Bassflute_sustain_PP_E4.opus
</region>

<region>
hikey=F5
hivel=127
lokey=E5
lovel=0
offset=4000
pitch_keycenter=E5
sample=Bassflute_sustain_PP_E5.opus
</region>

<region>
hikey=G3
hivel=127
lokey=F#3
lovel=0
offset=4000
pitch_keycenter=F#3
sample=Bassflute_sustain_PP_F#3.opus
</region>

<region>
hikey=G4
hivel=127
lokey=F#4
lovel=0
offset=4000
pitch_keycenter=F#4
sample=Bassflute_sustain_PP_F#4.opus
</region>

<region>
hikey=G5
hivel=127
lokey=F#5
lovel=0
offset=4000
pitch_keycenter=F#5
sample=Bassflute_sustain_PP_F#5.opus
</region>

<region>
hikey=A3
hivel=127
lokey=G#3
lovel=0
offset=4000
pitch_keycenter=G#3
sample=Bassflute_sustain_PP_G#3.opus
</region>

<region>
hikey=A4
hivel=127
lokey=G#4
lovel=0
offset=4000
pitch_keycenter=G#4
sample=Bassflute_sustain_PP_G#4.opus
</region>

<region>
hikey=A5
hivel=127
lokey=G#5
lovel=0
offset=4000
pitch_keycenter=G#5
sample=Bassflute_sustain_PP_G#5.opus
</region>
</group>